<?xml version="1.0" encoding="UTF-8"?>
<svg id="Layer_2" data-name="Layer 2" xmlns="http://www.w3.org/2000/svg" viewBox="0 0 627.39 176.06">
  <defs>
    <style>
      .cls-1 {
        font-family: Corbel-Bold, Corbel;
        font-weight: 700;
        letter-spacing: .4em;
      }

      .cls-1, .cls-2 {
        font-size: 27.73px;
      }

      .cls-1, .cls-3 {
        fill: #a6a8ab;
      }

      .cls-4 {
        letter-spacing: .18em;
      }

      .cls-2 {
        font-family: Corbel, Corbel;
      }

      .cls-2, .cls-5 {
        fill: #92c1db;
      }

      .cls-6 {
        letter-spacing: .18em;
      }

      .cls-7 {
        letter-spacing: .16em;
      }

      .cls-8 {
        fill: #58595b;
      }
    </style>
  </defs>
  <g id="Layer_1-2" data-name="Layer 1">
    <g>
      <path class="cls-5" d="M620.89,133.27h-20.89l-11.52-9.36h32.41c3.58,0,6.5,2.1,6.5,4.68h0c0,2.58-2.92,4.68-6.5,4.68Z"/>
      <path class="cls-8" d="M4.42,.72H114.54c2.44,0,4.42,1.98,4.42,4.42h0c0,2.44-1.98,4.42-4.42,4.42H4.42C1.98,9.56,0,7.58,0,5.14H0C0,2.7,1.98,.72,4.42,.72Z"/>
      <polygon class="cls-3" points="8.84 71.9 8.84 125.4 118.96 125.4 118.96 134.21 0 134.21 0 35.53 8.84 35.53 8.84 63.06 118.96 63.06 118.96 71.9 8.84 71.9"/>
      <path class="cls-8" d="M161.05,5.14V61.24c0,1.17-.46,2.31-1.3,3.12h0c-2.8,2.8-7.54,.81-7.54-3.12V5.14c0-2.44,1.98-4.42,4.42-4.42h0c2.44,0,4.42,1.98,4.42,4.42Z"/>
      <path class="cls-8" d="M571.13,123.91l11.52,9.36h-145.4c-3.44,0-6.17-2-6.17-4.44v-.45c0-2.48,2.77-4.44,6.17-4.44h133.88v-.03Z"/>
      <polygon class="cls-3" points="271.24 134.21 258.53 134.21 190.86 68.78 190.63 68.98 161.05 95.24 161.05 134.21 152.21 134.21 152.21 92.19 159.36 85.85 159.4 85.82 161.05 84.35 184.75 63.36 191.35 57.44 191.38 57.44 255.35 .72 267.6 .72 197.26 63.1 271.24 134.21"/>
      <path class="cls-3" d="M392.48,134.25h-12.48l-8.03-8.03c-12.45,7.05-27.37,10.27-43.13,8.03-29.64-4.23-53.31-28.34-57.01-58.05-2.34-18.62,2.96-36.01,13.16-49.44l6.73,6.73c-7.15,9.82-11.25,21.94-11.02,35.01,.52,30.26,25.12,55.65,55.35,57.01,10.47,.49,20.35-1.82,28.99-6.21h0l-6.05-6.11-6.92-6.92h0c2.73-1.4,5.3-2.96,7.74-4.75l19.7,19.7h-.03l13.03,13.03h-.03Z"/>
      <path class="cls-8" d="M405.87,60.72c1.89,19.34-4.42,37.22-15.86,50.61-1.98,2.31-5.53,2.41-7.7,.26h0c-1.5-1.5-1.59-3.93-.2-5.53,10.63-11.93,16.41-28.28,14.24-45.93-3.22-26.13-24.02-46.97-50.12-50.25-17.45-2.21-33.71,3.38-45.6,13.78-1.85,1.63-4.65,1.53-6.4-.2h0c-1.92-1.92-1.82-5.07,.23-6.86,13.39-11.7,31.5-18.2,51.06-16.28,31.82,3.12,57.27,28.57,60.36,60.39Z"/>
      <text class="cls-1" transform="translate(435.43 106.43) scale(1.02 1)"><tspan x="0" y="0">Premium</tspan></text>
      <text class="cls-2" transform="translate(431.26 169.43) scale(1.06 1)"><tspan class="cls-4" x="0" y="0">Car </tspan><tspan class="cls-7" x="64.72" y="0">R</tspan><tspan class="cls-6" x="85.58" y="0">entals</tspan></text>
    </g>
  </g>
</svg>